<?xml version="1.0" encoding="iso-8859-1"?>
<!-- Uploaded to: SVG Repo, www.svgrepo.com, Generator: SVG Repo Mixer Tools -->
<!DOCTYPE svg PUBLIC "-//W3C//DTD SVG 1.1//EN" "http://www.w3.org/Graphics/SVG/1.1/DTD/svg11.dtd">
<svg fill="#000000" version="1.1" id="Capa_1" xmlns="http://www.w3.org/2000/svg" xmlns:xlink="http://www.w3.org/1999/xlink" 
	 width="800px" height="800px" viewBox="0 0 589.289 589.289"
	 xml:space="preserve">
<g>
	<g>
		<g>
			<path d="M293.569,0c-57.255,0-103.634,46.378-103.634,103.634c0,57.255,46.378,103.753,103.634,103.753
				s103.633-46.498,103.633-103.753C397.202,46.378,350.824,0,293.569,0z M219.818,89.888c0-8.009,6.455-14.583,14.583-14.583
				c8.008,0,14.583,6.455,14.583,14.583c0,8.008-6.455,14.583-14.583,14.583C226.392,104.47,219.818,98.016,219.818,89.888z
				 M342.099,153.239c-12.073,14.822-29.764,23.428-48.53,23.428c-18.767,0-36.457-8.486-48.53-23.428
				c-3.706-4.542-2.988-11.117,1.554-14.822c4.542-3.586,11.117-2.988,14.822,1.554c16.017,19.842,48.29,19.842,64.427,0
				c3.706-4.542,10.28-5.14,14.822-1.554C345.087,142.003,345.804,148.697,342.099,153.239z M352.736,104.47
				c-8.008,0-14.582-6.574-14.582-14.583c0-8.009,6.574-14.583,14.582-14.583c8.009,0,14.583,6.455,14.583,14.583
				C367.2,98.016,360.745,104.47,352.736,104.47z"/>
		</g>
		<path d="M498.804,485.297l-86.302-86.302c-19.244-19.244-19.244-50.562,0-69.806l86.183-86.183
			c10.399-12.909,21.037-26.895,21.037-46.02c0-32.034-26.058-57.973-57.973-57.973c-21.635,0-36.935,13.507-46.378,20.679
			l-57.494,57.495v56.06c0,14.224-10.041,19.961-22.353,12.909l-30.959-17.81v-22.472c0-5.738-4.661-10.399-10.399-10.399
			s-10.399,4.662-10.399,10.399v22.711l-30.6,17.69c-12.192,7.052-22.232,1.315-22.232-12.909v-55.702l-57.854-58.092
			c-1.314-1.315-2.869-2.63-4.662-3.706c-12.312-11.236-26.297-16.854-40.879-16.854c-31.915,0-57.973,26.058-57.973,57.973
			c0,21.755,13.746,37.294,20.201,45.9l86.301,86.302c19.245,19.244,19.245,50.562,0,69.806l-86.182,86.183
			c-1.674,1.673-20.32,21.037-20.32,46.139c0,31.915,26.058,57.973,57.973,57.973c24.743,0,38.489-14.583,45.661-20.799
			l86.182-86.182c9.323-9.323,21.635-14.344,34.903-14.344c13.268,0,25.579,5.14,34.903,14.344l86.301,86.302
			c6.455,5.14,19.006,20.56,46.259,20.56c31.915,0,57.973-25.938,57.973-57.973C519.722,516.733,513.865,499.521,498.804,485.297z
			 M293.569,410.59c-10.28,0-18.647-8.367-18.647-18.646c0-10.28,8.367-18.647,18.647-18.647s18.647,8.367,18.647,18.647
			C312.096,402.342,303.849,410.59,293.569,410.59z M293.569,337.795c-10.28,0-18.647-8.367-18.647-18.646
			s8.367-18.646,18.647-18.646s18.647,8.367,18.647,18.646C312.096,329.548,303.849,337.795,293.569,337.795z"/>
	</g>
</g>
</svg>