<?xml version="1.0" encoding="iso-8859-1"?>
<!-- Uploaded to: SVG Repo, www.svgrepo.com, Generator: SVG Repo Mixer Tools -->
<svg height="800px" width="800px" version="1.1" id="Layer_1" xmlns="http://www.w3.org/2000/svg" xmlns:xlink="http://www.w3.org/1999/xlink" 
	 viewBox="0 0 511.998 511.998" xml:space="preserve">
<g>
	<path style="fill:#D14A41;" d="M317.79,335.086c0,39-31.62,70.621-70.621,70.621s-70.621-31.62-70.621-70.621
		s31.62-70.621,70.621-70.621S317.79,296.086,317.79,335.086"/>
	<path style="fill:#922C25;" d="M317.79,335.086c0,39-31.62,70.621-70.621,70.621c0,39,31.62,70.621,70.621,70.621
		s70.621-31.62,70.621-70.621S356.79,335.086,317.79,335.086"/>
	<path style="fill:#BE3A2B;" d="M247.169,405.707c-27.445,0-51.182-15.687-62.87-38.559c-25.309,10.743-43.061,35.814-43.061,65.042
		c0,39,31.62,70.621,70.621,70.621c28.222,0,52.498-16.596,63.815-40.519C258.398,449.421,247.169,428.906,247.169,405.707"/>
	<g>
		<path style="fill:#4C8056;" d="M510.453,185.636l1.545-9.446l-9.446,1.545c-23.861,3.902-68.511,1.81-87.658-10.372
			c-17.47,17.47-54.749,43.67-78.195,47.51l-10.161,1.66l0,0c-1.148,21.433-7.954,56.099-21.063,78.733
			c7.759,11.335,12.314,25.044,12.314,39.821c32.565,0,59.913,22.078,68.07,52.056c21.504-16.437,61.661-24.205,85.795-25.494
			l1.66-10.161c3.831-23.446,21.213-60.725,38.682-78.195C499.816,254.147,506.552,209.497,510.453,185.636"/>
		<path style="fill:#4C8056;" d="M184.302,367.151c-4.926-9.631-7.751-20.507-7.751-32.062c0-20.966,9.181-39.733,23.676-52.665
			c-9.013-21.513-13.824-48.199-14.769-65.889v-0.009l-10.169-1.66c-23.446-3.831-60.725-30.04-78.186-47.501
			c-19.156,12.173-63.806,14.265-87.658,10.372L0,176.192l1.545,9.446C5.438,209.49,12.173,254.14,0,273.296
			c17.461,17.461,34.842,54.749,38.674,78.195l1.66,10.161c26.244,1.395,71.477,10.425,91.021,29.97l1.854,1.854l19.218,0.75
			C160.071,382.29,171.114,372.747,184.302,367.151"/>
		<path style="fill:#4C8056;" d="M195.468,383.081c-0.185-0.194-0.362-0.397-0.538-0.591
			C195.106,382.684,195.283,382.887,195.468,383.081"/>
		<path style="fill:#4C8056;" d="M210.604,395.42c-0.415-0.256-0.847-0.503-1.254-0.768
			C209.766,394.917,210.189,395.164,210.604,395.42"/>
	</g>
	<g>
		<path style="fill:#F97B76;" d="M255.996,388.052c-2.26,0-4.52-0.865-6.241-2.586l-26.483-26.483
			c-3.452-3.452-3.452-9.031,0-12.482c3.452-3.452,9.031-3.452,12.482,0l26.483,26.483c3.452,3.452,3.452,9.031,0,12.482
			C260.516,387.187,258.256,388.052,255.996,388.052"/>
		<path style="fill:#F97B76;" d="M229.514,388.052c-2.26,0-4.52-0.865-6.241-2.586c-3.452-3.452-3.452-9.031,0-12.482l26.483-26.483
			c3.452-3.452,9.031-3.452,12.482,0c3.452,3.452,3.452,9.031,0,12.482l-26.483,26.483
			C234.033,387.187,231.774,388.052,229.514,388.052"/>
	</g>
	<g>
		<path style="fill:#BE3A2B;" d="M344.272,449.845c-2.26,0-4.52-0.865-6.241-2.586l-26.483-26.483
			c-3.452-3.452-3.452-9.031,0-12.482c3.452-3.452,9.031-3.452,12.482,0l26.483,26.483c3.452,3.452,3.452,9.031,0,12.482
			C348.792,448.98,346.532,449.845,344.272,449.845"/>
		<path style="fill:#BE3A2B;" d="M317.79,449.845c-2.26,0-4.52-0.865-6.241-2.586c-3.452-3.452-3.452-9.031,0-12.482l26.483-26.483
			c3.452-3.452,9.031-3.452,12.482,0c3.452,3.452,3.452,9.031,0,12.482l-26.483,26.483
			C322.309,448.98,320.049,449.845,317.79,449.845"/>
	</g>
	<g>
		<path style="fill:#922C25;" d="M220.686,476.328c-2.26,0-4.52-0.865-6.241-2.586l-26.483-26.483
			c-3.452-3.452-3.452-9.031,0-12.482c3.452-3.452,9.031-3.452,12.482,0l26.483,26.483c3.452,3.452,3.452,9.031,0,12.482
			C225.206,475.463,222.946,476.328,220.686,476.328"/>
		<path style="fill:#922C25;" d="M194.203,476.328c-2.26,0-4.52-0.865-6.241-2.586c-3.452-3.452-3.452-9.031,0-12.482l26.483-26.483
			c3.452-3.452,9.031-3.452,12.482,0c3.452,3.452,3.452,9.031,0,12.482l-26.483,26.483
			C198.723,475.463,196.463,476.328,194.203,476.328"/>
	</g>
	<g>
		<path style="fill:#71C084;" d="M361.919,326.259c-1.386,0-2.79-0.327-4.105-1.015c-4.308-2.269-5.976-7.609-3.699-11.926
			c34.366-65.315,115.076-107.873,118.493-109.647c4.334-2.269,9.649-0.565,11.908,3.752c2.251,4.317,0.565,9.657-3.752,11.908
			c-0.786,0.415-79.263,41.834-111.025,102.215C368.16,324.546,365.088,326.259,361.919,326.259"/>
		<path style="fill:#71C084;" d="M379.281,299.776c-3.09,0-6.082-1.624-7.707-4.511c-2.392-4.246-0.874-9.631,3.381-12.014
			c37.879-21.257,82.706-18.9,84.595-18.767c4.864,0.282,8.563,4.458,8.289,9.322c-0.282,4.864-4.59,8.563-9.313,8.298
			c-0.415-0.009-41.693-2.11-74.937,16.543C382.229,299.414,380.746,299.776,379.281,299.776"/>
		<path style="fill:#71C084;" d="M415.333,262.716c-4.255,0-8.007-3.09-8.704-7.433c-3.293-20.542,16.481-53.831,18.75-57.565
			c2.534-4.167,7.954-5.491,12.12-2.957c4.167,2.525,5.5,7.954,2.966,12.12c-7.256,11.961-18.114,34.922-16.41,45.612
			c0.777,4.82-2.507,9.34-7.318,10.108C416.26,262.681,415.8,262.716,415.333,262.716"/>
		<path style="fill:#71C084;" d="M150.238,334.905c-1.386,0-2.79-0.327-4.105-1.015C80.817,299.524,38.26,218.814,36.485,215.398
			c-2.251-4.326-0.565-9.657,3.752-11.908c4.334-2.278,9.666-0.556,11.908,3.752c0.415,0.786,41.834,79.263,102.215,111.025
			c4.308,2.269,5.976,7.609,3.699,11.926C156.479,333.193,153.407,334.905,150.238,334.905"/>
		<path style="fill:#71C084;" d="M111.065,317.966c-16.031,0-39.159-1.942-47.59-12.359c-3.063-3.787-2.481-9.348,1.315-12.42
			c3.787-3.063,9.348-2.481,12.412,1.315c2.666,3.284,16.719,5.579,32.627,5.764c-14.513-34.498-12.632-70.126-12.535-71.812
			c0.291-4.855,4.449-8.616,9.322-8.289c4.864,0.282,8.58,4.458,8.307,9.322c-0.018,0.406-2.119,41.657,16.543,74.92
			c1.483,2.648,1.501,5.862,0.053,8.527c-1.439,2.657-4.149,4.405-7.168,4.599C121.402,317.728,116.662,317.966,111.065,317.966"/>
		<path style="fill:#71C084;" d="M347.997,151.665c-13.868-19.288-27.939-49.117-27.939-73.816
			c-22.157-4.926-48.967-41.26-63.073-60.893l-5.588-7.768l-5.588,7.768c-14.115,19.633-47.166,49.726-69.323,54.652
			c0,24.7-7.83,60.769-21.698,80.057l-6.012,8.36l0,0c5.773,6.426,12.42,27.895,18.732,52.895c2.71,0.856,5.341,1.554,7.786,1.951
			l10.161,1.66l0,0c0.945,17.69,5.764,44.376,14.777,65.898c12.482-11.14,28.893-17.964,46.936-17.964
			c24.232,0,45.586,12.209,58.306,30.799l0,0c13.109-22.634,19.915-57.3,21.063-78.733l0,0l6.594-1.077
			c6.93-25.944,14.442-48.26,20.877-55.428L347.997,151.665z"/>
	</g>
	<g>
		<path style="fill:#4C8056;" d="M247.169,246.81c-3.769,0-7.256-2.419-8.43-6.206c-21.742-70.003-1.121-176.393-0.23-180.886
			c0.953-4.776,5.606-7.874,10.364-6.947c4.785,0.945,7.901,5.588,6.956,10.364c-0.212,1.059-20.63,106.531-0.23,172.226
			c1.448,4.652-1.156,9.604-5.809,11.052C248.917,246.678,248.034,246.81,247.169,246.81"/>
		<path style="fill:#4C8056;" d="M238.35,193.845c-0.794,0-1.598-0.106-2.392-0.327c-4.696-1.324-7.433-6.197-6.118-10.893
			c12.535-44.597,41.039-50.22,42.249-50.432c4.793-0.856,9.393,2.322,10.249,7.124c0.856,4.749-2.26,9.295-6.983,10.222
			c-1.042,0.238-19.235,4.846-28.513,37.87C245.748,191.303,242.208,193.845,238.35,193.845"/>
		<path style="fill:#4C8056;" d="M238.626,141.009c-2.825,0-5.606-1.351-7.309-3.858c-0.618-0.918-15.307-22.59-27.251-45.1
			c-2.295-4.299-0.653-9.649,3.655-11.926c4.308-2.322,9.649-0.671,11.935,3.655c11.502,21.672,26.121,43.229,26.262,43.441
			c2.745,4.034,1.695,9.525-2.33,12.262C242.059,140.515,240.329,141.009,238.626,141.009"/>
	</g>
</g>
</svg>