<?xml version="1.0" encoding="utf-8"?>
<!-- Uploaded to: SVG Repo, www.svgrepo.com, Generator: SVG Repo Mixer Tools -->
<!DOCTYPE svg PUBLIC "-//W3C//DTD SVG 1.1//EN" "http://www.w3.org/Graphics/SVG/1.1/DTD/svg11.dtd">
<svg xmlns="http://www.w3.org/2000/svg" xmlns:xlink="http://www.w3.org/1999/xlink" version="1.1" id="Layer_1"  width="512" height="512" viewBox="0 0 512 512" enable-background="new 0 0 512 512" xml:space="preserve">
<g id="sugar">
	<g>
		<polygon fill="#E5E8EC" points="155.26,222.704 111.472,246.516 21.34,219.891 47.965,129.752 91.745,105.94 181.884,132.564       "/>
		<polygon fill="#CBD0D8" points="138.096,156.377 47.965,129.752 91.745,105.94 181.884,132.564   "/>
	</g>
	<g>
		<polygon fill="#CBD0D8" points="428.481,88.972 345.28,132.689 388.981,215.892 472.199,172.189   "/>
	</g>
	<g>
		<polygon fill="#A9B1BC" points="369.514,135.455 354.811,183.079 271.702,226.969 227.813,143.846 242.516,96.222 325.64,52.348       "/>
		<polygon fill="#E5E8EC" points="310.921,99.972 227.813,143.846 271.702,226.969 354.811,183.079   "/>
		<polygon fill="#CBD0D8" points="242.516,96.222 227.813,143.846 310.921,99.972 325.64,52.348   "/>
	</g>
	<g>
		<polygon fill="#CBD0D8" points="136.018,204.626 121.135,157.049 164.705,73.769 247.984,117.346 262.859,164.924     219.297,248.188   "/>
		<polygon fill="#E5E8EC" points="164.705,73.769 121.135,157.049 204.407,200.626 247.984,117.346   "/>
	</g>
	<g>
		<g>
			<path fill="#AC92EA" d="M511.995,438.324c0,11.781-9.562,21.328-21.344,21.328H21.333c-11.781,0-21.328-9.547-21.328-21.328     V160.986h511.99V438.324z"/>
		</g>
		<path fill="#967ADA" d="M0.005,203.657v21.328h32c0,5.89,4.766,10.671,10.656,10.671c5.891,0,10.672-4.781,10.672-10.671H74.66    c0,5.89,4.781,10.671,10.672,10.671c5.89,0,10.671-4.781,10.671-10.671h21.328c0,5.89,4.781,10.671,10.672,10.671    s10.656-4.781,10.656-10.671h21.343c0,5.89,4.766,10.671,10.656,10.671c5.891,0,10.672-4.781,10.672-10.671h21.328    c0,5.89,4.781,10.671,10.672,10.671c5.89,0,10.671-4.781,10.671-10.671h21.328c0,5.89,4.781,10.671,10.672,10.671    s10.656-4.781,10.656-10.671h21.343c0,5.89,4.766,10.671,10.656,10.671s10.672-4.781,10.672-10.671h21.328    c0,5.89,4.781,10.671,10.672,10.671c5.89,0,10.671-4.781,10.671-10.671h21.327c0,5.89,4.781,10.671,10.672,10.671    s10.656-4.781,10.656-10.671h21.344c0,5.89,4.766,10.671,10.656,10.671s10.672-4.781,10.672-10.671h21.327    c0,5.89,4.781,10.671,10.672,10.671c5.89,0,10.671-4.781,10.671-10.671h31.609v-21.328H0.005z"/>
		<g opacity="0.2">
			<path fill="#FFFFFF" d="M490.651,160.986v277.338c0,11.781-9.547,21.328-21.327,21.328h21.327     c11.781,0,21.344-9.547,21.344-21.328V160.986H490.651z"/>
		</g>
	</g>
</g>
</svg>