<?xml version="1.0" encoding="UTF-8" standalone="no"?>
<!-- Uploaded to: SVG Repo, www.svgrepo.com, Generator: SVG Repo Mixer Tools -->

<svg
   width="800"
   height="800"
   viewBox="0 0 64 64"
   version="1.1"
   id="svg8"
   sodipodi:docname="christmas-decoration-pine-svgrepo-com.svg"
   inkscape:version="1.3 (0e150ed, 2023-07-21)"
   xml:space="preserve"
   inkscape:export-filename="svgtestimg.svg"
   inkscape:export-xdpi="96"
   inkscape:export-ydpi="96"
   xmlns:inkscape="http://www.inkscape.org/namespaces/inkscape"
   xmlns:sodipodi="http://sodipodi.sourceforge.net/DTD/sodipodi-0.dtd"
   xmlns="http://www.w3.org/2000/svg"
   xmlns:svg="http://www.w3.org/2000/svg"><defs
     id="defs8" /><sodipodi:namedview
     id="namedview8"
     pagecolor="#ffffff"
     bordercolor="#000000"
     borderopacity="0.25"
     inkscape:showpageshadow="2"
     inkscape:pageopacity="0.0"
     inkscape:pagecheckerboard="0"
     inkscape:deskcolor="#d1d1d1"
     inkscape:zoom="0.42317487"
     inkscape:cx="353.28184"
     inkscape:cy="373.3681"
     inkscape:window-width="1312"
     inkscape:window-height="449"
     inkscape:window-x="0"
     inkscape:window-y="38"
     inkscape:window-maximized="0"
     inkscape:current-layer="flat" /><g
     id="flat"><path
       id="polygon1"
       style="fill:#7ea82d;stroke-width:0.624492"
       d="m 31.013623,39.59269 -5.08621,-7.644302 h 2.543105 l -4.238304,-6.370251 h 2.543105 l -4.238305,-5.733226 h 2.543105 l -5.08621,-8.281327 -5.08621,8.281327 h 2.543105 l -4.238305,5.733226 h 2.543105 L 11.5173,31.948388 h 2.543105 L 8.9741948,39.59269 Z" /><path
       id="polygon2"
       style="fill:#fdb62f;stroke-width:0.624492"
       d="m 22.170303,8.2714383 -0.679549,-1.06001 -0.884639,0.614092 v -1.358137 h -1.224412 v 1.358137 l -0.884639,-0.614092 -0.679549,1.06001 1.072586,0.744045 -1.072586,0.744045 0.679549,1.0600097 0.884639,-0.614092 v 1.358138 h 1.224412 v -1.358138 l 0.884639,0.614092 0.679549,-1.0600097 -1.072586,-0.744045 z" /><path
       id="rect2"
       style="fill:#80421c;stroke-width:0.624492"
       d="m 18.15729,39.59269 h 3.673238 v 4.459176 H 18.15729 Z" /><path
       id="rect3"
       style="fill:#80421c;stroke-width:0.624492"
       d="m 15.096258,43.414841 h 9.795302 v 1.27405 h -9.795302 z" /><path
       id="circle3"
       style="fill:#dd4a43;stroke-width:0.624492"
       d="m 22.442734,28.126238 a 1.2244127,1.2740503 0 0 1 -1.224412,1.27405 1.2244127,1.2740503 0 0 1 -1.224413,-1.27405 1.2244127,1.2740503 0 0 1 1.224413,-1.274051 1.2244127,1.2740503 0 0 1 1.224412,1.274051 z" /><path
       id="circle4"
       style="fill:#dd4a43;stroke-width:0.624492"
       d="m 17.545084,35.770539 a 1.2244127,1.2740503 0 0 1 -1.224413,1.274051 1.2244127,1.2740503 0 0 1 -1.224413,-1.274051 1.2244127,1.2740503 0 0 1 1.224413,-1.27405 1.2244127,1.2740503 0 0 1 1.224413,1.27405 z" /><path
       id="rect4"
       style="fill:#fdb62f;stroke-width:0.624492"
       d="m 19.993909,17.29681 h 1.224413 v 1.27405 h -1.224413 z" /><path
       id="rect5"
       style="fill:#fdb62f;stroke-width:0.624492"
       d="m 17.545084,23.030036 h 1.224412 v 1.274051 h -1.224412 z" /><path
       id="rect6"
       style="fill:#fdb62f;stroke-width:0.624492"
       d="m 23.667147,35.133514 h 1.224413 v 1.274051 h -1.224413 z" /><path
       id="rect7"
       style="fill:#fdb62f;stroke-width:0.624492"
       d="m 16.932877,30.674338 h 1.224413 v 1.27405 h -1.224413 z" /><path
       id="rect8"
       style="fill:#70320f;stroke-width:0.624492"
       d="m 18.15729,39.59269 h 3.673238 v 1.274051 H 18.15729 Z" /><g
       id="_9"
       data-name="9"
       transform="matrix(0.26431564,0,0,0.24341072,-111.41009,-72.839881)"><path
         id="Path_56"
         data-name="Path 56"
         d="m 623.375,484.167 h -47.5 a 5.375,5.375 0 0 1 -5.375,-5.375 v -36.875 h 58.25 v 36.875 a 5.375,5.375 0 0 1 -5.375,5.375 z"
         fill="#ee6159" /><path
         id="Path_57"
         data-name="Path 57"
         d="m 623.375,486.917 h -47.5 a 8.134,8.134 0 0 1 -8.125,-8.125 v -36.875 a 2.75,2.75 0 0 1 2.75,-2.75 h 58.25 a 2.75,2.75 0 0 1 2.75,2.75 v 36.875 a 8.134,8.134 0 0 1 -8.125,8.125 z m -50.125,-42.25 v 34.125 a 2.628,2.628 0 0 0 2.625,2.625 h 47.5 A 2.628,2.628 0 0 0 626,478.792 v -34.125 z"
         fill="#151515" /><path
         id="Path_58"
         data-name="Path 58"
         d="M 625.667,425.167 H 573.333 A 5.833,5.833 0 0 0 567.5,431 v 10.917 h 64 V 431 a 5.833,5.833 0 0 0 -5.833,-5.833 z"
         fill="#ee6159" /><path
         id="Path_59"
         data-name="Path 59"
         d="m 631.5,444.667 h -64 a 2.75,2.75 0 0 1 -2.75,-2.75 V 431 a 8.594,8.594 0 0 1 8.583,-8.583 h 52.334 A 8.594,8.594 0 0 1 634.25,431 v 10.917 a 2.75,2.75 0 0 1 -2.75,2.75 z m -61.25,-5.5 h 58.5 V 431 a 3.086,3.086 0 0 0 -3.083,-3.083 H 573.333 A 3.086,3.086 0 0 0 570.25,431 Z"
         fill="#151515" /><rect
         id="Rectangle_5"
         data-name="Rectangle 5"
         width="16.417"
         height="43.25"
         transform="translate(591.417,440.917)"
         fill="#ffc97a"
         x="0"
         y="0" /><path
         id="Path_60"
         data-name="Path 60"
         d="m 607.833,486.917 h -16.416 a 2.75,2.75 0 0 1 -2.75,-2.75 v -43.25 a 2.75,2.75 0 0 1 2.75,-2.75 h 16.416 a 2.75,2.75 0 0 1 2.75,2.75 v 43.25 a 2.75,2.75 0 0 1 -2.75,2.75 z m -13.666,-5.5 h 10.916 v -37.75 h -10.916 z"
         fill="#151515" /><rect
         id="Rectangle_6"
         data-name="Rectangle 6"
         width="16.417"
         height="18.25"
         transform="translate(591.417,422.667)"
         fill="#fbbf77"
         x="0"
         y="0" /><path
         id="Path_61"
         data-name="Path 61"
         d="m 607.833,443.667 h -16.416 a 2.75,2.75 0 0 1 -2.75,-2.75 v -18.25 a 2.75,2.75 0 0 1 2.75,-2.75 h 16.416 a 2.75,2.75 0 0 1 2.75,2.75 v 18.25 a 2.75,2.75 0 0 1 -2.75,2.75 z m -13.666,-5.5 h 10.916 v -12.75 h -10.916 z"
         fill="#151515" /><g
         id="Group_29"
         data-name="Group 29"><path
           id="Path_62"
           data-name="Path 62"
           d="m 610.372,425.417 h -0.118 l -12.121,-0.145 a 2.75,2.75 0 0 1 -2.3,-4.211 l 6.437,-10.269 a 9.421,9.421 0 0 1 16.207,0.412 l 0.113,0.2 a 9.422,9.422 0 0 1 -8.221,14.013 z m -7.273,-5.588 7.221,0.087 0.052,2.751 v -2.75 a 3.882,3.882 0 0 0 3.376,-1.937 3.833,3.833 0 0 0 0.042,-3.894 l -0.112,-0.2 a 3.919,3.919 0 0 0 -6.744,-0.172 z"
           fill="#151515" /></g><g
         id="Group_30"
         data-name="Group 30"><path
           id="Path_63"
           data-name="Path 63"
           d="m 588.886,425.417 a 9.421,9.421 0 0 1 -8.221,-14.013 l 0.112,-0.2 a 9.421,9.421 0 0 1 16.207,-0.412 l 6.438,10.269 a 2.75,2.75 0 0 1 -2.3,4.211 L 589,425.416 Z m 0.12,-13.542 a 3.874,3.874 0 0 0 -3.426,2.009 l -0.112,0.2 a 3.829,3.829 0 0 0 0.041,3.893 3.884,3.884 0 0 0 3.377,1.938 v 2.75 l 0.051,-2.751 7.222,-0.087 -3.835,-6.116 a 3.844,3.844 0 0 0 -3.318,-1.836 z"
           fill="#151515" /></g></g></g></svg>
